<?xml version="1.0" encoding="UTF-8" standalone="no"?>
<!-- Created with Inkscape (http://www.inkscape.org/) -->

<svg
   width="510px"
   height="597px"
   viewBox="0 0 210 297"
   version="1.1"
   id="svg240"
   xml:space="preserve"
   xmlns="http://www.w3.org/2000/svg"><defs
     id="defs237" /><g
        id="layer1"><text
       xml:space="preserve"
       style="font-weight:bold;font-size:9.87777px;font-family:sans-serif;-inkscape-font-specification:'sans-serif Bold';opacity:1;fill:#ffffff;fill-opacity:1;stroke:#000000;stroke-width:0;stroke-linecap:round;stroke-miterlimit:2.1;stroke-dasharray:none;paint-order:markers fill stroke"
       x="48.258064"
       y="-93.322578"
       id="text6694"><tspan
         id="tspan6692"
         style="stroke-width:0"
         x="48.258064"
         y="-93.322578" /></text></g><g
        id="layer3"
><g
       id="g451"
       transform="matrix(0.99498489,0,0,0.98973217,92.944251,237.78502)"
       style="stroke-width:1.00771"><g
         id="g11031"
         transform="translate(-240.38756,18.703788)"
         style="stroke-width:1.00771"><g
           id="g11066"
           style="stroke-width:1.00771"><g
             id="g10997"
             transform="matrix(1.0336323,0,0,1.0653409,324.81997,-268.22394)"
             style="stroke-width:0.960291"><g
               id="g954"><path
                 id="path417-9"
                 style="fill:#fe6061;fill-opacity:1;stroke:#000000;stroke-width:0;stroke-linecap:round;stroke-miterlimit:2.1;stroke-dasharray:none;paint-order:markers fill stroke"
                 d="m 254.47045,-161.60712 a 50,47.992732 0 0 0 -50.00005,47.99277 50,47.992732 0 0 0 50.00005,47.992793 50,47.992732 0 0 0 46.83591,-31.195615 h -28.98584 a 25,23.996367 0 0 1 -17.85007,7.199217 25,23.996367 0 0 1 -25.00003,-23.996395 25,23.996367 0 0 1 25.00003,-23.99639 25,23.996367 0 0 1 17.84955,7.19871 h 28.98636 a 50,47.992732 0 0 0 -46.83591,-31.19509 z"
                 transform="matrix(0.96746202,0,0,0.93866667,-314.25099,251.77287)" /><g
                 id="g7626"
                 transform="matrix(1.3525398,0,0,1.9199989,-221.28408,-157.90306)"
                 style="fill:#ffffff;fill-opacity:1;stroke-width:0;stroke-dasharray:none"><path
                   id="path6772"
                   style="opacity:1;fill:#ffffff;fill-opacity:1;stroke:#000000;stroke-width:0;stroke-linecap:butt;stroke-linejoin:miter;stroke-dasharray:none;stroke-opacity:1"
                   d="m 119.38007,152 -0.45743,11.96959 6.72241,0.0304 c 0,0 5.02988,-2.26506 1.98761,-5.95953 0,0 3.38642,-3.06676 0.0983,-6.01392 z m 3.24527,2.78864 2.13269,0.0909 -0.063,0.98442 c -0.23523,0.84791 -2.16421,1.12015 -2.16421,1.12015 z m -0.39584,4.22012 2.13269,0.0909 -0.0631,0.98394 c -0.23523,0.8479 -2.16369,1.12063 -2.16369,1.12063 z"
                   /><g
                   id="g6698"
                   transform="matrix(1,0,0,0.9306572,-16.467806,230.11915)"
                   style="fill:#ffffff;fill-opacity:1;stroke-width:0;stroke-dasharray:none"><g
                     id="g6702"
                     transform="translate(6.5201613,0.17741936)"
                     style="fill:#ffffff;fill-opacity:1;stroke-width:0;stroke-dasharray:none"><path
                       style="fill:#ffffff;fill-opacity:1;stroke:#000000;stroke-width:0;stroke-linecap:butt;stroke-linejoin:miter;stroke-dasharray:none;stroke-opacity:1"
                       d="m 115.93612,-84.002563 -0.70401,12.779486 h 8.56049 l 0.0443,-3.858871 -4.83468,0.04435 0.70401,-8.910032 z"
                       id="path6766"
                       /><path
                       style="fill:#ffffff;fill-opacity:1;stroke:#000000;stroke-width:0;stroke-linecap:butt;stroke-linejoin:miter;stroke-dasharray:none;stroke-opacity:1"
                       d="m 124.37822,-84.085827 -0.345,12.859077 h 4.23409 l 0.40773,-12.890441 z"
                       id="path6770" /></g></g><path
                   style="fill:#ffffff;fill-opacity:1;stroke:#000000;stroke-width:0;stroke-linecap:butt;stroke-linejoin:miter;stroke-dasharray:none;stroke-opacity:1"
                   d="m 129.64919,152 -0.53226,12 9.35888,-0.0419 0.0887,-2.96865 -5.81049,-0.0419 0.0444,-1.54704 4.65726,-0.12543 0.0887,-2.63415 h -4.6129 l 0.13307,-1.63066 5.72177,-0.20906 0.0443,-2.75958 z"
                   id="path7600"
/><path
                   id="path7604"
                   style="opacity:1;fill:#ffffff;fill-opacity:1;stroke:#000000;stroke-width:0;stroke-linecap:butt;stroke-linejoin:miter;stroke-dasharray:none;stroke-opacity:1"
                   d="m 145.76371,152.03742 c -2.25449,-0.12723 -5.91282,0.11078 -5.91282,0.11078 l -0.66559,11.56853 h 3.54862 l -0.0445,-3.51891 0.97566,-0.0405 2.12906,3.84267 3.45974,-1.86055 -2.26188,-3.07403 c 0,0 4.6927,-2.83114 1.00589,-6.6063 -0.39588,-0.27319 -1.71177,-0.38412 -2.23418,-0.42167 z m -2.54197,3.02318 h 2.21795 l 0.0884,0.40482 c -0.26612,1.25392 -2.35076,1.94159 -2.35076,1.94159 z"
/></g><rect
                 style="opacity:0;fill:#0000ff;fill-rule:evenodd;stroke-width:0.243989"
                 id="rect937"
                 width="167.1183"
                 height="144.68159"
                 x="-146.68571"
                 y="65.335045"
                 rx="2.4911308"
                 ry="2.4298124" /><g
                 id="g949"><path
                   id="path922"
                   style="fill:#fe6061;fill-opacity:1;stroke:#000000;stroke-width:0;stroke-linecap:round;stroke-miterlimit:2.1;stroke-dasharray:none;paint-order:markers fill stroke"
                   d="m 254.47045,-161.60712 a 50,47.992732 0 0 0 -50.00005,47.99277 50,47.992732 0 0 0 50.00005,47.992793 50,47.992732 0 0 0 46.83591,-31.195615 h -28.98584 a 25,23.996367 0 0 1 -17.85007,7.199217 25,23.996367 0 0 1 -25.00003,-23.996395 25,23.996367 0 0 1 25.00003,-23.99639 25,23.996367 0 0 1 17.84955,7.19871 h 28.98636 a 50,47.992732 0 0 0 -46.83591,-31.19509 z"
                   transform="matrix(0.96746202,0,0,0.93866667,-314.25099,251.77287)" /><g
                   id="g938"
                   transform="matrix(1.3525398,0,0,1.9199989,-221.28408,-157.90306)"
                   style="fill:#ffffff;fill-opacity:1;stroke-width:0;stroke-dasharray:none"><path
                     id="path924"
                     style="opacity:1;fill:#ffffff;fill-opacity:1;stroke:#000000;stroke-width:0;stroke-linecap:butt;stroke-linejoin:miter;stroke-dasharray:none;stroke-opacity:1"
                     d="m 119.38007,152 -0.45743,11.96959 6.72241,0.0304 c 0,0 5.02988,-2.26506 1.98761,-5.95953 0,0 3.38642,-3.06676 0.0983,-6.01392 z m 3.24527,2.78864 2.13269,0.0909 -0.063,0.98442 c -0.23523,0.84791 -2.16421,1.12015 -2.16421,1.12015 z m -0.39584,4.22012 2.13269,0.0909 -0.0631,0.98394 c -0.23523,0.8479 -2.16369,1.12063 -2.16369,1.12063 z"
                     /><g
                     id="g932"
                     transform="matrix(1,0,0,0.9306572,-16.467806,230.11915)"
                     style="fill:#ffffff;fill-opacity:1;stroke-width:0;stroke-dasharray:none"><g
                       id="g930"
                       transform="translate(6.5201613,0.17741936)"
                       style="fill:#ffffff;fill-opacity:1;stroke-width:0;stroke-dasharray:none"><path
                         style="fill:#ffffff;fill-opacity:1;stroke:#000000;stroke-width:0;stroke-linecap:butt;stroke-linejoin:miter;stroke-dasharray:none;stroke-opacity:1"
                         d="m 115.93612,-84.002563 -0.70401,12.779486 h 8.56049 l 0.0443,-3.858871 -4.83468,0.04435 0.70401,-8.910032 z"
                         id="path926"
                         /><path
                         style="fill:#ffffff;fill-opacity:1;stroke:#000000;stroke-width:0;stroke-linecap:butt;stroke-linejoin:miter;stroke-dasharray:none;stroke-opacity:1"
                         d="m 124.37822,-84.085827 -0.345,12.859077 h 4.23409 l 0.40773,-12.890441 z"
                         id="path928" /></g></g><path
                     style="fill:#ffffff;fill-opacity:1;stroke:#000000;stroke-width:0;stroke-linecap:butt;stroke-linejoin:miter;stroke-dasharray:none;stroke-opacity:1"
                     d="m 129.64919,152 -0.53226,12 9.35888,-0.0419 0.0887,-2.96865 -5.81049,-0.0419 0.0444,-1.54704 4.65726,-0.12543 0.0887,-2.63415 h -4.6129 l 0.13307,-1.63066 5.72177,-0.20906 0.0443,-2.75958 z"
                     id="path934"
/><path
                     id="path936"
                     style="opacity:1;fill:#ffffff;fill-opacity:1;stroke:#000000;stroke-width:0;stroke-linecap:butt;stroke-linejoin:miter;stroke-dasharray:none;stroke-opacity:1"
                     d="m 145.76371,152.03742 c -2.25449,-0.12723 -5.91282,0.11078 -5.91282,0.11078 l -0.66559,11.56853 h 3.54862 l -0.0445,-3.51891 0.97566,-0.0405 2.12906,3.84267 3.45974,-1.86055 -2.26188,-3.07403 c 0,0 4.6927,-2.83114 1.00589,-6.6063 -0.39588,-0.27319 -1.71177,-0.38412 -2.23418,-0.42167 z m -2.54197,3.02318 h 2.21795 l 0.0884,0.40482 c -0.26612,1.25392 -2.35076,1.94159 -2.35076,1.94159 z"
/></g></g></g></g></g></g></g><g
        id="layer4"
/></g></svg>
